<svg width="35" height="32" viewBox="0 0 35 32" fill="none" xmlns="http://www.w3.org/2000/svg">
<path d="M26.7457 32C29.5767 32 31.6717 31.123 32.0117 30.973C34.2827 29.963 35.3047 27.304 34.2957 25.034C33.2967 22.784 30.6797 21.759 28.4237 22.72C28.2907 22.77 26.6307 23.369 25.0807 22.648C23.2297 21.787 22.0857 19.339 21.4527 17.439C21.3087 17.009 21.0677 16.165 20.7667 15.123C18.9007 8.65199 17.9347 6.83799 16.7837 5.30299C13.0727 0.351992 7.19168 0.0069918 4.30068 0.586992C1.86368 1.07399 0.282677 3.44499 0.770677 5.88199C1.25868 8.31999 3.63068 9.90199 6.06668 9.41199C6.22868 9.38599 8.27068 9.10599 9.49068 10.581C10.1337 11.868 11.5707 15.709 12.1207 17.615C12.4667 18.814 12.7497 19.786 12.9147 20.282C14.6877 25.599 17.5807 29.175 21.5177 30.911C23.3697 31.729 25.1717 32 26.7457 32Z" fill="#9266CC"/>
</svg>
